<svg width="16" height="17" viewBox="0 0 16 17" fill="none" xmlns="http://www.w3.org/2000/svg">
<path d="M13.5 3.2439V6.2439C13.5 6.3765 13.4473 6.50368 13.3536 6.59745C13.2598 6.69122 13.1326 6.7439 13 6.7439C12.8674 6.7439 12.7402 6.69122 12.6464 6.59745C12.5527 6.50368 12.5 6.3765 12.5 6.2439V4.45077L9.85375 7.09765C9.75993 7.19147 9.63268 7.24417 9.5 7.24417C9.36732 7.24417 9.24007 7.19147 9.14625 7.09765C9.05243 7.00383 8.99972 6.87658 8.99972 6.7439C8.99972 6.61121 9.05243 6.48397 9.14625 6.39015L11.7931 3.7439H10C9.86739 3.7439 9.74021 3.69122 9.64645 3.59745C9.55268 3.50368 9.5 3.3765 9.5 3.2439C9.5 3.11129 9.55268 2.98411 9.64645 2.89034C9.74021 2.79658 9.86739 2.7439 10 2.7439H13C13.1326 2.7439 13.2598 2.79658 13.3536 2.89034C13.4473 2.98411 13.5 3.11129 13.5 3.2439ZM6.14625 9.39015L3.5 12.037V10.2439C3.5 10.1113 3.44732 9.98411 3.35355 9.89034C3.25979 9.79657 3.13261 9.7439 3 9.7439C2.86739 9.7439 2.74021 9.79657 2.64645 9.89034C2.55268 9.98411 2.5 10.1113 2.5 10.2439V13.2439C2.5 13.3765 2.55268 13.5037 2.64645 13.5975C2.74021 13.6912 2.86739 13.7439 3 13.7439H6C6.13261 13.7439 6.25979 13.6912 6.35355 13.5975C6.44732 13.5037 6.5 13.3765 6.5 13.2439C6.5 13.1113 6.44732 12.9841 6.35355 12.8903C6.25979 12.7966 6.13261 12.7439 6 12.7439H4.20687L6.85375 10.0976C6.94757 10.0038 7.00028 9.87658 7.00028 9.7439C7.00028 9.61121 6.94757 9.48397 6.85375 9.39015C6.75993 9.29633 6.63268 9.24362 6.5 9.24362C6.36732 9.24362 6.24007 9.29633 6.14625 9.39015ZM13 9.7439C12.8674 9.7439 12.7402 9.79657 12.6464 9.89034C12.5527 9.98411 12.5 10.1113 12.5 10.2439V12.037L9.85375 9.39015C9.75993 9.29633 9.63268 9.24362 9.5 9.24362C9.36732 9.24362 9.24007 9.29633 9.14625 9.39015C9.05243 9.48397 8.99972 9.61121 8.99972 9.7439C8.99972 9.87658 9.05243 10.0038 9.14625 10.0976L11.7931 12.7439H10C9.86739 12.7439 9.74021 12.7966 9.64645 12.8903C9.55268 12.9841 9.5 13.1113 9.5 13.2439C9.5 13.3765 9.55268 13.5037 9.64645 13.5975C9.74021 13.6912 9.86739 13.7439 10 13.7439H13C13.1326 13.7439 13.2598 13.6912 13.3536 13.5975C13.4473 13.5037 13.5 13.3765 13.5 13.2439V10.2439C13.5 10.1113 13.4473 9.98411 13.3536 9.89034C13.2598 9.79657 13.1326 9.7439 13 9.7439ZM4.20687 3.7439H6C6.13261 3.7439 6.25979 3.69122 6.35355 3.59745C6.44732 3.50368 6.5 3.3765 6.5 3.2439C6.5 3.11129 6.44732 2.98411 6.35355 2.89034C6.25979 2.79658 6.13261 2.7439 6 2.7439H3C2.86739 2.7439 2.74021 2.79658 2.64645 2.89034C2.55268 2.98411 2.5 3.11129 2.5 3.2439V6.2439C2.5 6.3765 2.55268 6.50368 2.64645 6.59745C2.74021 6.69122 2.86739 6.7439 3 6.7439C3.13261 6.7439 3.25979 6.69122 3.35355 6.59745C3.44732 6.50368 3.5 6.3765 3.5 6.2439V4.45077L6.14625 7.09765C6.24007 7.19147 6.36732 7.24417 6.5 7.24417C6.63268 7.24417 6.75993 7.19147 6.85375 7.09765C6.94757 7.00383 7.00028 6.87658 7.00028 6.7439C7.00028 6.61121 6.94757 6.48397 6.85375 6.39015L4.20687 3.7439Z" fill="#1C1C1C"/>
</svg>
