<svg width="20" height="17" viewBox="0 0 20 17" fill="none" xmlns="http://www.w3.org/2000/svg">
<path d="M14.2969 0.243896C12.5223 0.243896 10.9685 1.00702 10 2.29694C9.03148 1.00702 7.47773 0.243896 5.70312 0.243896C4.29051 0.245489 2.9362 0.807355 1.93733 1.80623C0.938458 2.8051 0.376592 4.1594 0.375 5.57202C0.375 11.5876 9.29445 16.4569 9.6743 16.658C9.77441 16.7118 9.88632 16.74 10 16.74C10.1137 16.74 10.2256 16.7118 10.3257 16.658C10.7055 16.4569 19.625 11.5876 19.625 5.57202C19.6234 4.1594 19.0615 2.8051 18.0627 1.80623C17.0638 0.807355 15.7095 0.245489 14.2969 0.243896ZM10 15.2658C8.43078 14.3514 11.5 18.614 11.5 14C11.5014 12.952 14.2914 12.2411 15.0324 11.5C15.7735 10.7589 13.2489 2.19268 14.2969 2.19132C15.9684 2.19132 8.77797 2.50921 9.36406 3.93921C9.41586 4.0653 9.50397 4.17315 9.61721 4.24906C9.73044 4.32496 9.86368 15.2658 10 15.2658C10.1363 15.2658 10.2696 4.32496 10.3828 4.24906C10.496 4.17315 18 3 17.5 3C18.0861 1.56742 12.6254 2.19132 14.2969 2.19132C15.3449 2.19268 16.7589 2.25894 17.5 3C14.6701 2.29694 13.9986 0.451985 14 1.5C14 6.10711 11.5675 14.3505 10 15.2658Z" fill="#FF0101"/>
</svg>
