<svg width="24" height="25" viewBox="0 0 24 25" fill="none" xmlns="http://www.w3.org/2000/svg">
<path d="M21.5306 21.0913L16.8365 16.3982C18.1971 14.7648 18.8755 12.6697 18.7307 10.5489C18.5859 8.42799 17.629 6.44459 16.0591 5.01127C14.4892 3.57794 12.4271 2.80503 10.3019 2.85333C8.17663 2.90163 6.15181 3.76742 4.64864 5.27059C3.14547 6.77376 2.27968 8.79858 2.23138 10.9238C2.18308 13.0491 2.95599 15.1111 4.38932 16.6811C5.82265 18.251 7.80604 19.2078 9.92691 19.3526C12.0478 19.4974 14.1428 18.819 15.7762 17.4585L20.4693 22.1525C20.539 22.2222 20.6218 22.2775 20.7128 22.3152C20.8038 22.3529 20.9014 22.3723 21 22.3723C21.0985 22.3723 21.1961 22.3529 21.2871 22.3152C21.3782 22.2775 21.4609 22.2222 21.5306 22.1525C21.6003 22.0829 21.6556 22.0001 21.6933 21.9091C21.731 21.818 21.7504 21.7205 21.7504 21.6219C21.7504 21.5234 21.731 21.4258 21.6933 21.3347C21.6556 21.2437 21.6003 21.161 21.5306 21.0913ZM3.74997 11.1219C3.74997 9.78689 4.14585 8.48185 4.88755 7.37182C5.62925 6.26179 6.68345 5.39662 7.91686 4.88573C9.15026 4.37484 10.5075 4.24117 11.8168 4.50162C13.1262 4.76207 14.3289 5.40494 15.2729 6.34895C16.2169 7.29295 16.8598 8.49569 17.1203 9.80506C17.3807 11.1144 17.247 12.4716 16.7362 13.705C16.2253 14.9384 15.3601 15.9926 14.2501 16.7343C13.14 17.476 11.835 17.8719 10.5 17.8719C8.71037 17.8699 6.99463 17.1581 5.72919 15.8927C4.46375 14.6273 3.75195 12.9115 3.74997 11.1219Z" fill="#141414"/>
</svg>
