<svg width="16" height="17" viewBox="0 0 16 17" fill="none" xmlns="http://www.w3.org/2000/svg">
<path d="M14.6563 7.39264L11.8375 9.85264L12.6819 13.5151C12.7266 13.7066 12.7138 13.907 12.6452 14.0913C12.5767 14.2755 12.4553 14.4355 12.2963 14.5511C12.1373 14.6668 11.9477 14.733 11.7513 14.7415C11.5549 14.75 11.3603 14.7004 11.1919 14.5989L7.99753 12.6614L4.81003 14.5989C4.64163 14.7004 4.44706 14.75 4.25063 14.7415C4.05421 14.733 3.86465 14.6668 3.70565 14.5511C3.54665 14.4355 3.42527 14.2755 3.35668 14.0913C3.28809 13.907 3.27534 13.7066 3.32003 13.5151L4.16315 9.85639L1.34378 7.39264C1.19466 7.26403 1.08683 7.09426 1.03381 6.90461C0.980795 6.71496 0.984951 6.51388 1.04576 6.32659C1.10657 6.13929 1.22132 5.97412 1.37562 5.85178C1.52993 5.72944 1.71692 5.65538 1.91315 5.63889L5.6294 5.31702L7.08003 1.85702C7.15578 1.67547 7.28356 1.52039 7.44727 1.4113C7.61098 1.30222 7.8033 1.24402 8.00003 1.24402C8.19675 1.24402 8.38907 1.30222 8.55279 1.4113C8.7165 1.52039 8.84427 1.67547 8.92003 1.85702L10.375 5.31702L14.09 5.63889C14.2863 5.65538 14.4732 5.72944 14.6276 5.85178C14.7819 5.97412 14.8966 6.13929 14.9574 6.32659C15.0182 6.51388 15.0224 6.71496 14.9694 6.90461C14.9163 7.09426 14.8085 7.26403 14.6594 7.39264H14.6563Z" fill="#FFA100"/>
</svg>
