<svg width="24" height="25" viewBox="0 0 24 25" fill="none" xmlns="http://www.w3.org/2000/svg">
<path d="M21.6488 20.4969C20.2209 18.0285 18.0206 16.2585 15.4528 15.4194C16.723 14.6633 17.7098 13.5111 18.2618 12.1399C18.8137 10.7686 18.9003 9.25406 18.5082 7.82883C18.1161 6.4036 17.267 5.14649 16.0912 4.25055C14.9155 3.35461 13.4782 2.86938 12 2.86938C10.5218 2.86938 9.08451 3.35461 7.90878 4.25055C6.73306 5.14649 5.88394 6.4036 5.49183 7.82883C5.09971 9.25406 5.18629 10.7686 5.73825 12.1399C6.29021 13.5111 7.27704 14.6633 8.5472 15.4194C5.97938 16.2576 3.77907 18.0276 2.35126 20.4969C2.2989 20.5823 2.26417 20.6773 2.24912 20.7763C2.23407 20.8753 2.239 20.9764 2.26363 21.0735C2.28825 21.1705 2.33207 21.2617 2.3925 21.3416C2.45293 21.4214 2.52874 21.4884 2.61547 21.5385C2.7022 21.5886 2.79808 21.6208 2.89745 21.6332C2.99683 21.6457 3.0977 21.6381 3.19409 21.6109C3.29049 21.5837 3.38047 21.5375 3.45872 21.475C3.53697 21.4125 3.6019 21.3349 3.6497 21.2469C5.41595 18.1944 8.53782 16.3719 12 16.3719C15.4622 16.3719 18.5841 18.1944 20.3503 21.2469C20.3981 21.3349 20.4631 21.4125 20.5413 21.475C20.6196 21.5375 20.7095 21.5837 20.8059 21.6109C20.9023 21.6381 21.0032 21.6457 21.1026 21.6332C21.2019 21.6208 21.2978 21.5886 21.3845 21.5385C21.4713 21.4884 21.5471 21.4214 21.6075 21.3416C21.6679 21.2617 21.7118 21.1705 21.7364 21.0735C21.761 20.9764 21.766 20.8753 21.7509 20.7763C21.7358 20.6773 21.7011 20.5823 21.6488 20.4969ZM6.75001 9.62194C6.75001 8.58358 7.05792 7.56855 7.63479 6.70519C8.21167 5.84183 9.03161 5.16893 9.99092 4.77157C10.9502 4.37421 12.0058 4.27024 13.0242 4.47281C14.0426 4.67538 14.9781 5.1754 15.7123 5.90962C16.4465 6.64385 16.9466 7.57931 17.1491 8.59771C17.3517 9.61611 17.2477 10.6717 16.8504 11.631C16.453 12.5903 15.7801 13.4103 14.9168 13.9872C14.0534 14.564 13.0384 14.8719 12 14.8719C10.6081 14.8704 9.27359 14.3168 8.28934 13.3326C7.3051 12.3484 6.7515 11.0139 6.75001 9.62194Z" fill="#141414"/>
</svg>
