<svg width="16" height="17" viewBox="0 0 16 17" fill="none" xmlns="http://www.w3.org/2000/svg">
<path d="M11.3537 8.59768L6.35372 13.5977C6.30727 13.6441 6.25212 13.681 6.19142 13.7061C6.13072 13.7313 6.06567 13.7442 5.99997 13.7442C5.93428 13.7442 5.86922 13.7313 5.80852 13.7061C5.74783 13.681 5.69268 13.6441 5.64622 13.5977C5.59977 13.5512 5.56292 13.4961 5.53778 13.4354C5.51263 13.3747 5.49969 13.3096 5.49969 13.2439C5.49969 13.1782 5.51263 13.1132 5.53778 13.0525C5.56292 12.9918 5.59977 12.9366 5.64622 12.8902L10.2931 8.24393L5.64622 3.59768C5.5524 3.50386 5.49969 3.37661 5.49969 3.24393C5.49969 3.11125 5.5524 2.984 5.64622 2.89018C5.74004 2.79636 5.86729 2.74365 5.99997 2.74365C6.13265 2.74365 6.2599 2.79636 6.35372 2.89018L11.3537 7.89018C11.4002 7.93662 11.4371 7.99176 11.4623 8.05246C11.4874 8.11316 11.5004 8.17822 11.5004 8.24393C11.5004 8.30964 11.4874 8.3747 11.4623 8.4354C11.4371 8.4961 11.4002 8.55124 11.3537 8.59768Z" fill="#1C1C1C"/>
</svg>
