<svg width="16" height="17" viewBox="0 0 16 17" fill="none" xmlns="http://www.w3.org/2000/svg">
<path d="M10.3537 12.8902C10.4002 12.9366 10.4371 12.9918 10.4622 13.0525C10.4873 13.1132 10.5003 13.1782 10.5003 13.2439C10.5003 13.3096 10.4873 13.3747 10.4622 13.4354C10.4371 13.4961 10.4002 13.5512 10.3537 13.5977C10.3073 13.6441 10.2521 13.681 10.1914 13.7061C10.1307 13.7313 10.0657 13.7442 10 13.7442C9.9343 13.7442 9.86925 13.7313 9.80855 13.7061C9.74785 13.681 9.6927 13.6441 9.64625 13.5977L4.64625 8.59768C4.59976 8.55124 4.56288 8.4961 4.53772 8.4354C4.51255 8.3747 4.4996 8.30964 4.4996 8.24393C4.4996 8.17822 4.51255 8.11316 4.53772 8.05246C4.56288 7.99176 4.59976 7.93662 4.64625 7.89018L9.64625 2.89018C9.74007 2.79636 9.86731 2.74365 10 2.74365C10.1327 2.74365 10.2599 2.79636 10.3537 2.89018C10.4476 2.984 10.5003 3.11125 10.5003 3.24393C10.5003 3.37661 10.4476 3.50386 10.3537 3.59768L5.70687 8.24393L10.3537 12.8902Z" fill="#1C1C1C"/>
</svg>
