<svg width="22" height="23" viewBox="0 0 22 23" fill="none" xmlns="http://www.w3.org/2000/svg">
<path d="M15.2969 2.9939C13.5223 2.9939 11.9685 3.75702 11 5.04694C10.0315 3.75702 8.47773 2.9939 6.70312 2.9939C5.29051 2.99549 3.9362 3.55735 2.93733 4.55623C1.93846 5.5551 1.37659 6.9094 1.375 8.32202C1.375 14.3376 10.2945 19.2069 10.6743 19.408C10.7744 19.4618 10.8863 19.49 11 19.49C11.1137 19.49 11.2256 19.4618 11.3257 19.408C11.7055 19.2069 20.625 14.3376 20.625 8.32202C20.6234 6.9094 20.0615 5.5551 19.0627 4.55623C18.0638 3.55735 16.7095 2.99549 15.2969 2.9939ZM11 18.0158C9.43078 17.1014 2.75 12.936 2.75 8.32202C2.75136 7.27401 3.16829 6.26931 3.90935 5.52825C4.65041 4.78719 5.65511 4.37026 6.70312 4.3689C8.37461 4.3689 9.77797 5.25921 10.3641 6.68921C10.4159 6.8153 10.504 6.92315 10.6172 6.99906C10.7304 7.07496 10.8637 7.11548 11 7.11548C11.1363 7.11548 11.2696 7.07496 11.3828 6.99906C11.496 6.92315 11.5841 6.8153 11.6359 6.68921C12.222 5.25663 13.6254 4.3689 15.2969 4.3689C16.3449 4.37026 17.3496 4.78719 18.0907 5.52825C18.8317 6.26931 19.2486 7.27401 19.25 8.32202C19.25 12.9291 12.5675 17.1005 11 18.0158Z" fill="#262626"/>
</svg>
