<svg width="24" height="25" viewBox="0 0 24 25" fill="none" xmlns="http://www.w3.org/2000/svg">
<path d="M21 12.6219C21 12.8209 20.921 13.0116 20.7803 13.1523C20.6397 13.2929 20.4489 13.3719 20.25 13.3719H3.75C3.55109 13.3719 3.36032 13.2929 3.21967 13.1523C3.07902 13.0116 3 12.8209 3 12.6219C3 12.423 3.07902 12.2323 3.21967 12.0916C3.36032 11.951 3.55109 11.8719 3.75 11.8719H20.25C20.4489 11.8719 20.6397 11.951 20.7803 12.0916C20.921 12.2323 21 12.423 21 12.6219ZM3.75 7.37195H20.25C20.4489 7.37195 20.6397 7.29293 20.7803 7.15228C20.921 7.01163 21 6.82086 21 6.62195C21 6.42304 20.921 6.23227 20.7803 6.09162C20.6397 5.95097 20.4489 5.87195 20.25 5.87195H3.75C3.55109 5.87195 3.36032 5.95097 3.21967 6.09162C3.07902 6.23227 3 6.42304 3 6.62195C3 6.82086 3.07902 7.01163 3.21967 7.15228C3.36032 7.29293 3.55109 7.37195 3.75 7.37195ZM20.25 17.8719H3.75C3.55109 17.8719 3.36032 17.951 3.21967 18.0916C3.07902 18.2323 3 18.423 3 18.6219C3 18.8209 3.07902 19.0116 3.21967 19.1523C3.36032 19.2929 3.55109 19.3719 3.75 19.3719H20.25C20.4489 19.3719 20.6397 19.2929 20.7803 19.1523C20.921 19.0116 21 18.8209 21 18.6219C21 18.423 20.921 18.2323 20.7803 18.0916C20.6397 17.951 20.4489 17.8719 20.25 17.8719Z" fill="#141414"/>
</svg>
