<svg width="24" height="25" viewBox="0 0 24 25" fill="none" xmlns="http://www.w3.org/2000/svg">
<path d="M22.4897 19.1957L21.1528 7.9457C21.1095 7.57915 20.9325 7.24146 20.6557 6.99724C20.379 6.75301 20.0219 6.61939 19.6528 6.62195H16.5C16.5 5.42847 16.0259 4.28388 15.182 3.43997C14.3381 2.59605 13.1935 2.12195 12 2.12195C10.8065 2.12195 9.66194 2.59605 8.81803 3.43997C7.97411 4.28388 7.50001 5.42847 7.50001 6.62195H4.34344C3.97435 6.61939 3.61728 6.75301 3.34053 6.99724C3.06379 7.24146 2.8868 7.57915 2.84344 7.9457L1.50657 19.1957C1.48207 19.4057 1.50223 19.6184 1.56572 19.8201C1.62922 20.0217 1.73462 20.2077 1.875 20.3657C2.01641 20.5244 2.18969 20.6515 2.38353 20.7388C2.57738 20.826 2.78744 20.8714 3.00001 20.8719H20.9925C21.2063 20.8724 21.4178 20.8276 21.6131 20.7403C21.8083 20.653 21.9828 20.5254 22.125 20.3657C22.2647 20.2073 22.3694 20.0213 22.4323 19.8196C22.4951 19.618 22.5147 19.4054 22.4897 19.1957ZM12 3.62195C12.7957 3.62195 13.5587 3.93802 14.1213 4.50063C14.6839 5.06324 15 5.8263 15 6.62195H9.00001C9.00001 5.8263 9.31608 5.06324 9.87868 4.50063C10.4413 3.93802 11.2044 3.62195 12 3.62195ZM3.00001 19.3719L4.34344 8.12195H7.50001V10.3719C7.50001 10.5709 7.57902 10.7616 7.71968 10.9023C7.86033 11.0429 8.05109 11.1219 8.25001 11.1219C8.44892 11.1219 8.63968 11.0429 8.78034 10.9023C8.92099 10.7616 9.00001 10.5709 9.00001 10.3719V8.12195H15V10.3719C15 10.5709 15.079 10.7616 15.2197 10.9023C15.3603 11.0429 15.5511 11.1219 15.75 11.1219C15.9489 11.1219 16.1397 11.0429 16.2803 10.9023C16.421 10.7616 16.5 10.5709 16.5 10.3719V8.12195H19.6641L20.9925 19.3719H3.00001Z" fill="#141414"/>
</svg>
