<svg width="22" height="23" viewBox="0 0 22 23" fill="none" xmlns="http://www.w3.org/2000/svg">
<path d="M15.125 13.9939C14.6663 13.9938 14.2124 14.0856 13.7899 14.2641C13.3674 14.4426 12.9851 14.704 12.6654 15.0329L8.70371 12.4866C9.01534 11.6874 9.01534 10.8004 8.70371 10.0012L12.6654 7.45492C13.2605 8.06449 14.0607 8.43138 14.911 8.48447C15.7612 8.53756 16.6008 8.27306 17.2671 7.74225C17.9334 7.21144 18.3788 6.45213 18.5171 5.61155C18.6554 4.77097 18.4766 3.90899 18.0154 3.19274C17.5542 2.47648 16.8435 1.95699 16.0211 1.73496C15.1987 1.51293 14.3231 1.6042 13.5641 1.99106C12.8051 2.37792 12.2169 3.03282 11.9133 3.82878C11.6098 4.62474 11.6126 5.50506 11.9212 6.29906L7.95949 8.84539C7.48243 8.35561 6.87014 8.01922 6.2009 7.87923C5.53166 7.73924 4.83588 7.802 4.2025 8.05949C3.56912 8.31698 3.02691 8.7575 2.64519 9.32475C2.26346 9.89199 2.05957 10.5602 2.05957 11.2439C2.05957 11.9276 2.26346 12.5958 2.64519 13.1631C3.02691 13.7303 3.56912 14.1708 4.2025 14.4283C4.83588 14.6858 5.53166 14.7486 6.2009 14.6086C6.87014 14.4686 7.48243 14.1322 7.95949 13.6424L11.9212 16.1887C11.6558 16.8733 11.6165 17.6248 11.8091 18.3332C12.0018 19.0417 12.4161 19.6698 12.9916 20.1258C13.567 20.5817 14.2733 20.8414 15.007 20.8668C15.7408 20.8923 16.4634 20.6822 17.069 20.2672C17.6747 19.8523 18.1316 19.2544 18.3729 18.561C18.6141 17.8676 18.627 17.1151 18.4097 16.4139C18.1924 15.7126 17.7562 15.0993 17.1652 14.6639C16.5741 14.2284 15.8591 13.9936 15.125 13.9939ZM15.125 2.9939C15.5329 2.9939 15.9316 3.11487 16.2708 3.3415C16.61 3.56813 16.8744 3.89025 17.0305 4.26712C17.1866 4.64399 17.2274 5.05869 17.1478 5.45878C17.0683 5.85886 16.8718 6.22636 16.5834 6.51481C16.2949 6.80326 15.9274 6.99969 15.5273 7.07927C15.1273 7.15885 14.7126 7.11801 14.3357 6.9619C13.9588 6.8058 13.6367 6.54144 13.4101 6.20227C13.1834 5.86309 13.0625 5.46433 13.0625 5.0564C13.0625 4.50939 13.2798 3.98479 13.6666 3.59799C14.0533 3.2112 14.578 2.9939 15.125 2.9939ZM5.49996 13.3064C5.09204 13.3064 4.69328 13.1854 4.3541 12.9588C4.01492 12.7322 3.75057 12.4101 3.59446 12.0332C3.43836 11.6563 3.39751 11.2416 3.47709 10.8415C3.55668 10.4414 3.75311 10.0739 4.04155 9.78549C4.33 9.49705 4.6975 9.30061 5.09759 9.22103C5.49767 9.14145 5.91237 9.18229 6.28925 9.3384C6.66612 9.49451 6.98824 9.75886 7.21487 10.098C7.4415 10.4372 7.56246 10.836 7.56246 11.2439C7.56246 11.7909 7.34516 12.3155 6.95837 12.7023C6.57158 13.0891 6.04697 13.3064 5.49996 13.3064ZM15.125 19.4939C14.717 19.4939 14.3183 19.3729 13.9791 19.1463C13.6399 18.9197 13.3756 18.5976 13.2195 18.2207C13.0634 17.8438 13.0225 17.4291 13.1021 17.029C13.1817 16.6289 13.3781 16.2614 13.6666 15.973C13.955 15.6845 14.3225 15.4881 14.7226 15.4085C15.1227 15.3289 15.5374 15.3698 15.9142 15.5259C16.2911 15.682 16.6132 15.9464 16.8399 16.2855C17.0665 16.6247 17.1875 17.0235 17.1875 17.4314C17.1875 17.9784 16.9702 18.503 16.5834 18.8898C16.1966 19.2766 15.672 19.4939 15.125 19.4939Z" fill="#262626"/>
</svg>
